:FULLY-SPECIFIED
:FORCE-ALL-JOINTS-BE-3DOF
:DEGREES
1223
root -0.842055 14.8461 -16.6087 370.158 17.7058 360.838
lfemur 1.99168 -2.73043 -7.57902
ltibia 63.6405 0 0
lfoot 3.66343 -0.0391287 0
ltoes -32.7163 0 0
rfemur -56.1848 -9.3854 23.0894
rtibia 75.6203 0 0
rfoot -21.3322 -20.6012 0
rtoes -3.93466 0 0
lowerback 12.9986 1.35937 -2.78952
upperback -3.3903 1.32732 -0.13154
thorax -11.0998 0.803029 1.11033
lowerneck -0.977907 -8.70324 -9.88523
upperneck 0.130523 -11.651 10.3877
head 1.40695 -5.78708 4.36367
lclavicle -2.1608e-14 -2.00995e-14 0
lhumerus -62.4939 -34.2064 120.927
lradius 85.8354 0 0
lwrist 8.53316 0 0
lhand -28.3229 26.0587 0
lfingers 7.12502 0 0
lthumb -1.69856 78.7078 0
rclavicle -2.1608e-14 -2.00995e-14 0
rhumerus 70.5067 2.95057 -22.2992
rradius 94.1306 0 0
rwrist -11.6039 0 0
rhand -30.5641 -34.6091 0
rfingers 7.12502 0 0
rthumb -3.8595 -64.6195 0
1224
root -0.856038 14.8573 -16.487 370.309 17.1704 360.644
lfemur 1.38551 -2.76231 -7.6945
ltibia 64.2926 0 0
lfoot 4.27367 -0.778639 0
ltoes -32.4937 0 0
rfemur -55.8297 -9.03897 23.5021
rtibia 75.5667 0 0
rfoot -21.4735 -21.1866 0
rtoes -3.9459 0 0
lowerback 12.8676 1.32351 -2.57172
upperback -3.44745 1.32599 -0.093275
thorax -11.0782 0.79107 1.03348
lowerneck -1.04163 -8.56046 -9.77413
upperneck 0.117334 -11.4502 10.312
head 1.37994 -5.6858 4.33645
lclavicle -2.24921e-14 -1.9958e-14 0
lhumerus -61.5509 -34.6178 121.095
lradius 85.3749 0 0
lwrist 7.1477 0 0
lhand -28.6884 25.6971 0
lfingers 7.12502 0 0
lthumb -2.05147 76.7342 0
rclavicle -2.24921e-14 -1.9958e-14 0
rhumerus 70.1771 3.49392 -22.5433
rradius 94.1922 0 0
rwrist -12.3193 0 0
rhand -30.2425 -34.6853 0
rfingers 7.12502 0 0
rthumb -3.54908 -64.6964 0
1225
root -0.870021 14.8684 -16.3652 370.449 16.6392 360.449
lfemur 0.748165 -2.76756 -7.82171
ltibia 64.8864 0 0
lfoot 4.85349 -1.45791 0
ltoes -32.2236 0 0
rfemur -55.425 -8.70747 23.8994
rtibia 75.4828 0 0
rfoot -21.5971 -21.7425 0
rtoes -3.99118 0 0
lowerback 12.7353 1.29162 -2.3597
upperback -3.5032 1.32834 -0.0538924
thorax -11.0546 0.781316 0.96052
lowerneck -1.10652 -8.41948 -9.665
upperneck 0.114239 -11.2525 10.2369
head 1.35702 -5.58601 4.30918
lclavicle -2.33318e-14 -1.97974e-14 0
lhumerus -60.5371 -35.0009 121.196
lradius 84.9501 0 0
lwrist 5.89051 0 0
lhand -29.0318 25.3805 0
lfingers 7.12502 0 0
lthumb -2.38302 74.4867 0
rclavicle -2.33318e-14 -1.97974e-14 0
rhumerus 69.7648 4.04899 -22.8494
rradius 94.2446 0 0
rwrist -13.0297 0 0
rhand -29.9112 -34.7496 0
rfingers 7.12502 0 0
rthumb -3.22938 -64.76 0
1226
root -0.884004 14.8796 -16.2435 370.577 16.1131 360.254
lfemur 0.0787067 -2.74474 -7.96102
ltibia 65.4176 0 0
lfoot 5.40085 -2.07297 0
ltoes -31.9041 0 0
rfemur -54.9687 -8.39222 24.2802
rtibia 75.3673 0 0
rfoot -21.7023 -22.2666 0
rtoes -4.07251 0 0
lowerback 12.6021 1.26395 -2.15394
upperback -3.55746 1.33453 -0.0133584
thorax -11.0291 0.77389 0.891747
lowerneck -1.17257 -8.28057 -9.55803
upperneck 0.121689 -11.0583 10.1625
head 1.33841 -5.48791 4.28191
lclavicle -2.41247e-14 -1.96177e-14 0
lhumerus -59.4496 -35.3539 121.226
lradius 84.5634 0 0
lwrist 4.77033 0 0
lhand -29.3517 25.1124 0
lfingers 7.12502 0 0
lthumb -2.69178 71.9532 0
rclavicle -2.41247e-14 -1.96177e-14 0
rhumerus 69.2657 4.61589 -23.2204
rradius 94.2873 0 0
rwrist -13.7345 0 0
rhand -29.57 -34.8007 0
rfingers 7.12502 0 0
rthumb -2.90016 -64.8092 0
1227
root -0.897987 14.8907 -16.1218 370.692 15.5929 360.059
lfemur -0.623795 -2.69239 -8.11279
ltibia 65.882 0 0
lfoot 5.91372 -2.61988 0
ltoes -31.533 0 0
rfemur -54.4586 -8.09457 24.6434
rtibia 75.2189 0 0
rfoot -21.7885 -22.7569 0
rtoes -4.19189 0 0
lowerback 12.4681 1.24073 -1.95496
upperback -3.61014 1.34476 0.0283605
thorax -11.0017 0.768917 0.827441
lowerneck -1.23975 -8.14399 -9.45344
upperneck 0.140135 -10.868 10.089
head 1.32432 -5.39168 4.25467
lclavicle -2.48685e-14 -1.94186e-14 0
lhumerus -58.2855 -35.6749 121.18
lradius 84.2171 0 0
lwrist 3.79591 0 0
lhand -29.6464 24.8966 0
lfingers 7.12502 0 0
lthumb -2.97633 69.1215 0
rclavicle -2.48685e-14 -1.94186e-14 0
rhumerus 68.6757 5.19471 -23.6594
rradius 94.3197 0 0
rwrist -14.4328 0 0
rhand -29.2186 -34.8378 0
rfingers 7.12502 0 0
rthumb -2.56116 -64.843 0
1228
root -0.91197 14.9019 -16.0001 370.795 15.0795 359.864
lfemur -1.36027 -2.60906 -8.27739
ltibia 66.2753 0 0
lfoot 6.39009 -3.09468 0
ltoes -31.1082 0 0
rfemur -53.8924 -7.81585 24.9877
rtibia 75.0364 0 0
rfoot -21.8548 -23.2113 0
rtoes -4.35132 0 0
lowerback 12.3333 1.22221 -1.76325
upperback -3.66112 1.3592 0.0712978
thorax -10.9723 0.766522 0.767887
lowerneck -1.30803 -8.00998 -9.35144
upperneck 0.170028 -10.682 10.0164
head 1.31498 -5.29753 4.22748
lclavicle -2.55609e-14 -1.91999e-14 0
lhumerus -57.0422 -35.962 121.056
lradius 83.9137 0 0
lwrist 2.97599 0 0
lhand -29.9146 24.7364 0
lfingers 7.12502 0 0
lthumb -3.23522 65.9796 0
rclavicle -2.55609e-14 -1.91999e-14 0
rhumerus 67.9904 5.78556 -24.1694
rradius 94.3412 0 0
rwrist -15.1237 0 0
rhand -28.8569 -34.8599 0
rfingers 7.12502 0 0
rthumb -2.21213 -64.8604 0
1229
root -0.925953 14.913 -15.8784 370.884 14.5738 359.67
lfemur -2.13165 -2.49331 -8.45517
ltibia 66.5932 0 0
lfoot 6.82792 -3.49342 0
ltoes -30.6278 0 0
rfemur -53.2681 -7.55742 25.3121
rtibia 74.8185 0 0
rfoot -21.9005 -23.6277 0
rtoes -4.55279 0 0
lowerback 12.198 1.20863 -1.57931
upperback -3.71031 1.37803 0.115487
thorax -10.9409 0.766828 0.713369
lowerneck -1.37738 -7.8788 -9.25223
upperneck 0.211819 -10.5007 9.945
head 1.31058 -5.20565 4.20039
lclavicle -2.61996e-14 -1.89616e-14 0
lhumerus -55.7167 -36.2134 120.849
lradius 83.6553 0 0
lwrist 2.31931 0 0
lhand -30.1547 24.6355 0
lfingers 7.12502 0 0
lthumb -3.46704 62.5152 0
rclavicle -2.61996e-14 -1.89616e-14 0
rhumerus 67.2057 6.38856 -24.7534
rradius 94.3513 0 0
rwrist -15.8065 0 0
rhand -28.4844 -34.8661 0
rfingers 7.12502 0 0
rthumb -1.85281 -64.8603 0
